HIERARCHY
ROOT Hips
{
  OFFSET -436.359 92.1209 710.182
  CHANNELS 6 Xposition Yposition Zposition Zrotation Xrotation Yrotation
  JOINT Spine
  {
    OFFSET 1.95101e-05 8 0
    CHANNELS 6 Xposition Yposition Zposition Zrotation Xrotation Yrotation
    JOINT Spine1
    {
      OFFSET -3.07925e-05 8 1.72276e-05
      CHANNELS 6 Xposition Yposition Zposition Zrotation Xrotation Yrotation
      JOINT Spine2
      {
        OFFSET 1.30681e-05 8 0
        CHANNELS 6 Xposition Yposition Zposition Zrotation Xrotation Yrotation
        JOINT Spine3
        {
          OFFSET 0 8 0
          CHANNELS 6 Xposition Yposition Zposition Zrotation Xrotation Yrotation
          JOINT Neck
          {
            OFFSET 0.00029598 17.0001 0.000159002
            CHANNELS 6 Xposition Yposition Zposition Zrotation Xrotation Yrotation
            JOINT Head
            {
              OFFSET 4.62559e-05 10.8 -1.64755e-05
              CHANNELS 6 Xposition Yposition Zposition Zrotation Xrotation Yrotation
              End Site
              {
                OFFSET 0 20.25 0
              }
            }
          }
          JOINT LeftShoulder
          {
            OFFSET 5.00032 16.9999 1.32675e-05
            CHANNELS 6 Xposition Yposition Zposition Zrotation Xrotation Yrotation
            JOINT LeftShoulder2
            {
              OFFSET 6.45 0 0
              CHANNELS 6 Xposition Yposition Zposition Zrotation Xrotation Yrotation
              JOINT LeftArm
              {
                OFFSET 6.45003 0.000323796 -0.000653872
                CHANNELS 6 Xposition Yposition Zposition Zrotation Xrotation Yrotation
                JOINT LeftForeArm
                {
                  OFFSET -2.91052e-05 -32.4 -1.99998
                  CHANNELS 6 Xposition Yposition Zposition Zrotation Xrotation Yrotation
                  JOINT LeftHand
                  {
                    OFFSET -1.81171e-05 -25.65 1.99998
                    CHANNELS 6 Xposition Yposition Zposition Zrotation Xrotation Yrotation
                    JOINT LeftHandThumb1
                    {
                      OFFSET -0.499957 -1.50001 2.65002
                      CHANNELS 6 Xposition Yposition Zposition Zrotation Xrotation Yrotation
                      JOINT LeftHandThumb2
                      {
                        OFFSET 0 -3.8 3.7
                        CHANNELS 6 Xposition Yposition Zposition Zrotation Xrotation Yrotation
                        JOINT LeftHandThumb3
                        {
                          OFFSET 0 -2.99999 2.69999
                          CHANNELS 6 Xposition Yposition Zposition Zrotation Xrotation Yrotation
                          End Site
                          {
                            OFFSET 0 -2.3 1.80001
                          }
                        }
                      }
                    }
                    JOINT LeftHandIndex
                    {
                      OFFSET 1.87193e-05 -1.90001 1.60001
                      CHANNELS 6 Xposition Yposition Zposition Zrotation Xrotation Yrotation
                      JOINT LeftHandIndex1
                      {
                        OFFSET 0 -8.3 1.90001
                        CHANNELS 6 Xposition Yposition Zposition Zrotation Xrotation Yrotation
                        JOINT LeftHandIndex2
                        {
                          OFFSET 7.02344e-05 -4.5 0
                          CHANNELS 6 Xposition Yposition Zposition Zrotation Xrotation Yrotation
                          JOINT LeftHandIndex3
                          {
                            OFFSET 0 -3.39999 -2.01198e-05
                            CHANNELS 6 Xposition Yposition Zposition Zrotation Xrotation Yrotation
                            End Site
                            {
                              OFFSET -2.99232e-05 -2.60001 0
                            }
                          }
                        }
                      }
                    }
                    JOINT LeftHandMiddle
                    {
                      OFFSET -0.249983 -2.20001 0.400007
                      CHANNELS 6 Xposition Yposition Zposition Zrotation Xrotation Yrotation
                      JOINT LeftHandMiddle1
                      {
                        OFFSET 3.73681e-05 -8.29999 1
                        CHANNELS 6 Xposition Yposition Zposition Zrotation Xrotation Yrotation
                        JOINT LeftHandMiddle2
                        {
                          OFFSET 0 -4.65 0
                          CHANNELS 6 Xposition Yposition Zposition Zrotation Xrotation Yrotation
                          JOINT LeftHandMiddle3
                          {
                            OFFSET -2.06209e-05 -3.30002 1.42468e-05
                            CHANNELS 6 Xposition Yposition Zposition Zrotation Xrotation Yrotation
                            End Site
                            {
                              OFFSET -4.9998e-05 -2.7 0
                            }
                          }
                        }
                      }
                    }
                    JOINT LeftHandRing
                    {
                      OFFSET -0.499981 -2.15001 -0.799989
                      CHANNELS 6 Xposition Yposition Zposition Zrotation Xrotation Yrotation
                      JOINT LeftHandRing1
                      {
                        OFFSET -2.15242e-05 -7.75 -0.200004
                        CHANNELS 6 Xposition Yposition Zposition Zrotation Xrotation Yrotation
                        JOINT LeftHandRing2
                        {
                          OFFSET 2.71508e-05 -3.79999 0
                          CHANNELS 6 Xposition Yposition Zposition Zrotation Xrotation Yrotation
                          JOINT LeftHandRing3
                          {
                            OFFSET 0 -3.40001 1.00971e-05
                            CHANNELS 6 Xposition Yposition Zposition Zrotation Xrotation Yrotation
                            End Site
                            {
                              OFFSET 1.25861e-05 -2.59999 0
                            }
                          }
                        }
                      }
                    }
                    JOINT LeftHandPinky
                    {
                      OFFSET -0.749989 -1.75001 -1.84999
                      CHANNELS 6 Xposition Yposition Zposition Zrotation Xrotation Yrotation
                      JOINT LeftHandPinky1
                      {
                        OFFSET 2.85765e-05 -7.15 -1
                        CHANNELS 6 Xposition Yposition Zposition Zrotation Xrotation Yrotation
                        JOINT LeftHandPinky2
                        {
                          OFFSET -1.07829e-05 -3.00001 0
                          CHANNELS 6 Xposition Yposition Zposition Zrotation Xrotation Yrotation
                          JOINT LeftHandPinky3
                          {
                            OFFSET 0 -2.34999 -1.24126e-05
                            CHANNELS 6 Xposition Yposition Zposition Zrotation Xrotation Yrotation
                            End Site
                            {
                              OFFSET 3.38775e-05 -2.1 0
                            }
                          }
                        }
                      }
                    }
                  }
                }
              }
            }
          }
          JOINT RightShoulder
          {
            OFFSET -4.99968 17.0001 0.000276588
            CHANNELS 6 Xposition Yposition Zposition Zrotation Xrotation Yrotation
            JOINT RightShoulder2
            {
              OFFSET -6.45 0 0
              CHANNELS 6 Xposition Yposition Zposition Zrotation Xrotation Yrotation
              JOINT RightArm
              {
                OFFSET -6.45 -0.000201442 -8.29556e-05
                CHANNELS 6 Xposition Yposition Zposition Zrotation Xrotation Yrotation
                JOINT RightForeArm
                {
                  OFFSET 1.01917e-05 -32.4 -2
                  CHANNELS 6 Xposition Yposition Zposition Zrotation Xrotation Yrotation
                  JOINT RightHand
                  {
                    OFFSET 0 -25.65 1.99997
                    CHANNELS 6 Xposition Yposition Zposition Zrotation Xrotation Yrotation
                    JOINT RightHandThumb1
                    {
                      OFFSET 0.499975 -1.50004 2.65
                      CHANNELS 6 Xposition Yposition Zposition Zrotation Xrotation Yrotation
                      JOINT RightHandThumb2
                      {
                        OFFSET 0 -3.8 3.7
                        CHANNELS 6 Xposition Yposition Zposition Zrotation Xrotation Yrotation
                        JOINT RightHandThumb3
                        {
                          OFFSET 1.32637e-05 -2.99999 2.70001
                          CHANNELS 6 Xposition Yposition Zposition Zrotation Xrotation Yrotation
                          End Site
                          {
                            OFFSET 1.60962e-05 -2.29999 1.79999
                          }
                        }
                      }
                    }
                    JOINT RightHandIndex
                    {
                      OFFSET 0 -1.9 1.60001
                      CHANNELS 6 Xposition Yposition Zposition Zrotation Xrotation Yrotation
                      JOINT RightHandIndex1
                      {
                        OFFSET 0 -8.30001 1.9
                        CHANNELS 6 Xposition Yposition Zposition Zrotation Xrotation Yrotation
                        JOINT RightHandIndex2
                        {
                          OFFSET -2.87653e-05 -4.5 -1.39499e-05
                          CHANNELS 6 Xposition Yposition Zposition Zrotation Xrotation Yrotation
                          JOINT RightHandIndex3
                          {
                            OFFSET 8.73678e-05 -3.4 2.25689e-05
                            CHANNELS 6 Xposition Yposition Zposition Zrotation Xrotation Yrotation
                            End Site
                            {
                              OFFSET -2.34135e-05 -2.59999 -2.53555e-05
                            }
                          }
                        }
                      }
                    }
                    JOINT RightHandMiddle
                    {
                      OFFSET 0.249988 -2.20001 0.40001
                      CHANNELS 6 Xposition Yposition Zposition Zrotation Xrotation Yrotation
                      JOINT RightHandMiddle1
                      {
                        OFFSET -1.08487e-05 -8.30001 0.999991
                        CHANNELS 6 Xposition Yposition Zposition Zrotation Xrotation Yrotation
                        JOINT RightHandMiddle2
                        {
                          OFFSET -2.43534e-05 -4.65 2.50327e-05
                          CHANNELS 6 Xposition Yposition Zposition Zrotation Xrotation Yrotation
                          JOINT RightHandMiddle3
                          {
                            OFFSET 1.76007e-05 -3.29997 -2.4401e-05
                            CHANNELS 6 Xposition Yposition Zposition Zrotation Xrotation Yrotation
                            End Site
                            {
                              OFFSET 1.42536e-05 -2.69999 0
                            }
                          }
                        }
                      }
                    }
                    JOINT RightHandRing
                    {
                      OFFSET 0.499975 -2.15003 -0.800008
                      CHANNELS 6 Xposition Yposition Zposition Zrotation Xrotation Yrotation
                      JOINT RightHandRing1
                      {
                        OFFSET 3.25971e-05 -7.74998 -0.19997
                        CHANNELS 6 Xposition Yposition Zposition Zrotation Xrotation Yrotation
                        JOINT RightHandRing2
                        {
                          OFFSET -2.06579e-05 -3.79999 -1.18557e-05
                          CHANNELS 6 Xposition Yposition Zposition Zrotation Xrotation Yrotation
                          JOINT RightHandRing3
                          {
                            OFFSET 0 -3.40002 0
                            CHANNELS 6 Xposition Yposition Zposition Zrotation Xrotation Yrotation
                            End Site
                            {
                              OFFSET 0 -2.59997 1.49736e-05
                            }
                          }
                        }
                      }
                    }
                    JOINT RightHandPinky
                    {
                      OFFSET 0.750003 -1.75001 -1.84997
                      CHANNELS 6 Xposition Yposition Zposition Zrotation Xrotation Yrotation
                      JOINT RightHandPinky1
                      {
                        OFFSET 0 -7.14999 -1.00001
                        CHANNELS 6 Xposition Yposition Zposition Zrotation Xrotation Yrotation
                        JOINT RightHandPinky2
                        {
                          OFFSET 0 -3.00001 1.28753e-05
                          CHANNELS 6 Xposition Yposition Zposition Zrotation Xrotation Yrotation
                          JOINT RightHandPinky3
                          {
                            OFFSET -1.66669e-05 -2.34997 -1.1969e-05
                            CHANNELS 6 Xposition Yposition Zposition Zrotation Xrotation Yrotation
                            End Site
                            {
                              OFFSET 0 -2.09996 -2.9356e-05
                            }
                          }
                        }
                      }
                    }
                  }
                }
              }
            }
          }
        }
      }
    }
  }
  JOINT LeftUpLeg
  {
    OFFSET 8.00001 0 -2.32818e-05
    CHANNELS 6 Xposition Yposition Zposition Zrotation Xrotation Yrotation
    JOINT LeftLeg
    {
      OFFSET -1.36954e-05 -45.0001 -0.999991
      CHANNELS 6 Xposition Yposition Zposition Zrotation Xrotation Yrotation
      JOINT LeftFoot
      {
        OFFSET -1.06737e-05 -41 -2.00003
        CHANNELS 6 Xposition Yposition Zposition Zrotation Xrotation Yrotation
        JOINT LeftToeBase
        {
          OFFSET -2.20364e-05 -7.5 12.5
          CHANNELS 6 Xposition Yposition Zposition Zrotation Xrotation Yrotation
          JOINT LeftFootToe
          {
            OFFSET 0 0 4
            CHANNELS 6 Xposition Yposition Zposition Zrotation Xrotation Yrotation
            End Site
            {
              OFFSET 0 0 0
            }
          }
        }
      }
    }
  }
  JOINT RightUpLeg
  {
    OFFSET -8.00001 0 2.32818e-05
    CHANNELS 6 Xposition Yposition Zposition Zrotation Xrotation Yrotation
    JOINT RightLeg
    {
      OFFSET 0 -45 -1.00002
      CHANNELS 6 Xposition Yposition Zposition Zrotation Xrotation Yrotation
      JOINT RightFoot
      {
        OFFSET -1.61273e-05 -41 -1.99999
        CHANNELS 6 Xposition Yposition Zposition Zrotation Xrotation Yrotation
        JOINT RightToeBase
        {
          OFFSET 0 -7.5 12.5
          CHANNELS 6 Xposition Yposition Zposition Zrotation Xrotation Yrotation
          JOINT RightFootToe
          {
            OFFSET 0 0 4
            CHANNELS 6 Xposition Yposition Zposition Zrotation Xrotation Yrotation
            End Site
            {
              OFFSET 0 0 0
            }
          }
        }
      }
    }
  }
}
MOTION
Frames:	3
Frame Time:	0.0111111
-410.946 91.1918 704.9 2.1282 5.45342 -114.33 -1.13687e-13 8 0 10.742 5.9988 5.01421 0 8 8.52651e-14 1.59657 5.1461 1.50156 -1.13687e-13 8 2.84217e-14 0.81525 2.57121 0.770318 -1.13687e-13 8 -8.52651e-14 0.813176 2.569 0.76876 1.13687e-13 17 -2.84217e-14 -5.66433 2.88548 11.7787 0 10.8 5.68434e-14 -14.0749 4.80739 28.15 5 17 -2.84217e-14 -0.460717 -6.00408 8.73911 6.45 0 0 -0.983748 -0.568676 -2.26907 6.45 -1.42109e-14 0 52.3009 -43.0707 26.5868 0 -32.4 -2 -19.1112 -9.4984 37.1188 0 -25.65 2 43.412 18.9185 -36.4661 -0.5 -1.5 2.65 -0.120569 -29.1166 10.2772 -5.68434e-14 -3.8 3.7 -0.0090534 6.52533 -0.00498701 0 -3 2.7 -0.013078 22.6172 -0.00309816 0 -1.9 1.6 3.18055e-15 1.94809e-14 1.49089e-15 0 -8.3 1.9 -1.36269 -3.78494 0.021696 -5.68434e-14 -4.5 5.68434e-14 -0.000717555 0.000104159 -0.00933912 5.68434e-14 -3.4 5.68434e-14 -2.17216e-06 9.86174e-05 -0.00372507 -0.25 -2.2 0.4 3.18055e-15 1.94809e-14 1.49089e-15 -5.68434e-14 -8.3 1 -1.10967 -4.08972 0.0362612 0 -4.65 -5.68434e-14 -0.00169228 0.00355347 0.00273 0 -3.3 -5.68434e-14 1.04319e-05 0.0035619 0.0017291 -0.5 -2.15 -0.8 3.18055e-15 1.94809e-14 1.49089e-15 5.68434e-14 -7.75 -0.2 -0.648928 -4.53958 0.0418285 -5.68434e-14 -3.8 5.68434e-14 5.10302e-05 -0.0155364 0.0101188 0 -3.4 5.68434e-14 3.6621e-06 -0.0165959 -0.00735517 -0.75 -1.75 -1.85 3.18055e-15 1.94809e-14 1.49089e-15 0 -7.15 -1 -0.360738 -5.0104 0.053094 0 -3 0 -0.0297948 -0.00324122 -0.00241315 0 -2.35 0 -1.6187e-05 -0.00311063 -0.00233198 -5 17 -2.84217e-14 -1.43742 -8.36079 6.87608 -6.45 0 0 -1.6851 1.11782 -4.89031 -6.45 2.84217e-14 2.84217e-14 -1.67667 -15.0574 21.3548 0 -32.4 -2 -2.16531 -65.6177 -5.80375 -2.27374e-13 -25.65 2 -61.2444 9.36619 33.1888 0.5 -1.5 2.65 33.4591 -25.5846 4.75076 1.13687e-13 -3.8 3.7 0.212702 22.6429 -0.0912653 0 -3 2.7 -0.0551324 39.4865 -0.256801 0 -1.9 1.6 3.74065e-07 -2.18838e-07 6.47733e-07 0 -8.3 1.9 50.9288 7.60314 -4.387 -1.13687e-13 -4.5 0 3.06546 0.379548 -0.167575 1.13687e-13 -3.4 0 0.000909988 0.381602 -0.178391 0.25 -2.2 0.4 3.74065e-07 -2.18838e-07 6.47733e-07 0 -8.3 1 60.705 10.8393 -9.21241 0 -4.65 0 80.5316 -0.00212233 -0.02671 1.42109e-14 -3.3 5.68434e-14 63.8456 -0.0440855 -0.0144412 0.5 -2.15 -0.8 3.74065e-07 -2.18838e-07 6.47733e-07 0 -7.75 -0.2 69.5231 5.6481 -9.76502 0 -3.8 -5.68434e-14 83.5291 -0.0165453 -0.0177606 0 -3.4 5.68434e-14 72.6604 -0.0443336 0.0213613 0.75 -1.75 -1.85 3.74065e-07 -2.18838e-07 6.47733e-07 0 -7.15 -1 89.9826 -0.0569753 -16.9598 0 -3 0 53.6962 0.0423342 0.104052 0 -2.35 -5.68434e-14 37.205 0.074531 0.0426744 8 0 5.68434e-14 21.2431 -25.4695 25.7099 0 -45 -1 -0.283435 0.687886 -3.40605 0 -41 -2 -6.98185 16.6777 -34.9757 -1.13687e-13 -7.5 12.5 2.63992e-07 3.24511e-06 -6.19784e-07 0 7.10543e-15 4 -1.69663 -3.65349 0.544524 -8 0 -5.68434e-14 6.00223 -11.4672 -6.31831 0 -45 -1 0.115688 20.1019 -0.950975 -2.27374e-13 -41 -2 -1.43184 -8.44947 -21.3379 -1.13687e-13 -7.5 12.5 1.52293e-12 5.72587e-06 8.87375e-12 0 1.38778e-17 4 4.26294 4.10461 32.3493 
-410.952 91.1895 704.883 2.12646 5.44956 -114.364 0 8 0 10.7537 5.9719 5.01964 0 8 -5.68434e-14 1.59792 5.1469 1.50278 0 8 0 0.816129 2.57079 0.771348 1.13687e-13 8 2.84217e-14 0.813732 2.56874 0.769623 0 17 -2.84217e-14 -5.68922 2.95793 11.7282 0 10.8 5.68434e-14 -14.1555 4.9741 28.0461 5 17 0 -0.501594 -5.98975 8.73906 6.45 2.84217e-14 0 -0.987028 -0.573324 -2.26867 6.45 -2.84217e-14 -5.68434e-14 52.4127 -43.326 26.1568 0 -32.4 -2 -18.8394 -8.80779 37.1228 0 -25.65 2 43.1006 18.8276 -36.7011 -0.5 -1.5 2.65 -0.118796 -28.9691 10.2292 -1.13687e-13 -3.8 3.7 -0.00868146 6.58832 -0.00559321 0 -3 2.7 -0.0135928 22.2889 -0.00322389 5.68434e-14 -1.9 1.6 -3.18055e-15 2.3059e-14 1.98785e-15 5.68434e-14 -8.3 1.9 -1.36944 -3.82539 0.0227592 5.68434e-14 -4.5 -5.68434e-14 -0.000723379 0.000105291 -0.00944664 0 -3.4 5.68434e-14 -2.89725e-06 0.000100399 -0.0035053 -0.25 -2.2 0.4 -3.18055e-15 2.3059e-14 1.98785e-15 -5.68434e-14 -8.3 1 -1.09091 -3.94381 0.0352561 0 -4.65 0 -0.00169872 0.00337502 0.00245393 0 -3.3 0 9.80376e-06 0.00338048 0.00159318 -0.5 -2.15 -0.8 -3.18055e-15 2.3059e-14 1.98785e-15 -5.68434e-14 -7.75 -0.2 -0.580615 -4.0373 0.0354734 0 -3.8 -5.68434e-14 3.6718e-05 -0.0153911 0.0103384 5.68434e-14 -3.4 -5.68434e-14 4.82044e-06 -0.0164751 -0.00745082 -0.75 -1.75 -1.85 -3.18055e-15 2.3059e-14 1.98785e-15 0 -7.15 -1 -0.266041 -4.32131 0.0429674 0 -3 -5.68434e-14 0.0255192 0.0064497 -0.00228306 0 -2.35 -5.68434e-14 -0.0288946 0.00704562 -0.000392454 -5 17 -5.68434e-14 -1.42806 -8.42649 6.86394 -6.45 -1.42109e-14 5.68434e-14 -1.68531 1.11919 -4.87164 -6.45 2.84217e-14 -2.84217e-14 -1.78247 -15.0384 21.5448 1.13687e-13 -32.4 -2 -2.37587 -65.6321 -5.8295 -1.13687e-13 -25.65 2 -61.746 8.52798 34.6661 0.5 -1.5 2.65 32.8194 -26.3254 4.66134 -1.13687e-13 -3.8 3.7 0.207313 22.7347 -0.0924644 -1.13687e-13 -3 2.7 -0.0160353 41.2572 -0.188384 0 -1.9 1.6 3.74065e-07 -2.18838e-07 6.47733e-07 0 -8.3 1.9 49.8132 7.17278 -4.07831 1.13687e-13 -4.5 0 3.06545 0.378983 -0.16658 0 -3.4 0 0.000901548 0.381005 -0.177402 0.25 -2.2 0.4 3.74065e-07 -2.18838e-07 6.47733e-07 0 -8.3 1 59.546 10.7413 -8.96286 1.13687e-13 -4.65 0 81.0447 -0.00082502 -0.025032 5.68434e-14 -3.3 5.68434e-14 64.7354 -0.0395527 -0.018259 0.5 -2.15 -0.8 3.74065e-07 -2.18838e-07 6.47733e-07 0 -7.75 -0.2 68.7431 5.93755 -9.85391 -1.13687e-13 -3.8 0 83.8041 -0.0104135 -0.0126625 0 -3.4 5.68434e-14 73.2267 -0.0308878 0.0128692 0.75 -1.75 -1.85 3.74065e-07 -2.18838e-07 6.47733e-07 0 -7.15 -1 89.9705 -0.0820957 -16.8649 -1.13687e-13 -3 -5.68434e-14 52.8461 0.0271329 0.0707779 -2.84217e-14 -2.35 0 36.554 0.0497253 0.0298658 8 2.84217e-14 0 21.2624 -25.4475 25.6934 0 -45 -1 -0.283321 0.688416 -3.41172 0 -41 -2 -7.00679 16.7267 -34.9495 0 -7.5 12.5 2.63992e-07 3.24511e-06 -6.19784e-07 0 -1.42109e-14 4 -1.65264 -3.68674 0.541457 -8 0 -5.68434e-14 6.00735 -11.4675 -6.32 0 -45 -1 0.117023 20.1191 -0.95786 -1.13687e-13 -41 -2 -1.44197 -8.46474 -21.3175 1.13687e-13 -7.5 12.5 1.52293e-12 5.72587e-06 8.85466e-12 0 0 4 4.27096 4.15878 32.3457 
-410.956 91.1872 704.867 2.12455 5.4455 -114.398 1.13687e-13 8 0 10.766 5.94578 5.02403 0 8 -2.84217e-14 1.59921 5.14791 1.50405 0 8 -8.52651e-14 0.816884 2.57043 0.772269 -1.13687e-13 8 2.84217e-14 0.814277 2.56848 0.770432 2.27374e-13 17 -8.52651e-14 -5.71218 3.03302 11.6768 0 10.8 0 -14.2324 5.14767 27.9406 5 17 2.84217e-14 -0.545909 -5.96791 8.74279 6.45 0 0 -0.990268 -0.573569 -2.26862 6.45 -1.42109e-14 0 52.5226 -43.5805 25.6487 0 -32.4 -2 -18.5489 -8.20456 37.1872 1.13687e-13 -25.65 2 42.7195 18.7432 -36.8788 -0.5 -1.5 2.65 -0.135902 -28.7854 10.0879 -5.68434e-14 -3.8 3.7 -0.00833176 6.66012 -0.00614994 -5.68434e-14 -3 2.7 -0.0139528 21.927 -0.00335582 0 -1.9 1.6 3.18055e-15 2.52457e-14 -2.18663e-15 -5.68434e-14 -8.3 1.9 -1.37866 -3.88356 0.024345 5.68434e-14 -4.5 -5.68434e-14 -0.000728106 0.000106102 -0.00955352 0 -3.4 0 -3.63617e-06 0.000101833 -0.00329212 -0.25 -2.2 0.4 3.18055e-15 2.52457e-14 -2.18663e-15 0 -8.3 1 -1.07832 -3.81898 0.0345088 0 -4.65 -5.68434e-14 -0.0017041 0.0031449 0.00217735 -5.68434e-14 -3.3 -5.68434e-14 9.12784e-06 0.00314737 0.00145824 -0.5 -2.15 -0.8 3.18055e-15 2.52457e-14 -2.18663e-15 0 -7.75 -0.2 -0.527405 -3.55807 0.0299709 0 -3.8 0 2.07979e-05 -0.0151895 0.0105567 5.68434e-14 -3.4 -5.68434e-14 6.05535e-06 -0.0162899 -0.00752762 -0.75 -1.75 -1.85 3.18055e-15 2.52457e-14 -2.18663e-15 0 -7.15 -1 -0.189873 -3.66272 0.0338324 0 -3 0 -0.0614968 0.0186597 -0.00013955 0 -2.35 1.13687e-13 -0.18744 0.0193798 0.00342004 -5 17 -2.84217e-14 -1.42104 -8.48336 6.85493 -6.45 -1.42109e-14 -5.68434e-14 -1.68547 1.12067 -4.85476 -6.45 2.84217e-14 0 -1.86311 -14.996 21.7018 0 -32.4 -2 -2.48864 -65.6126 -5.92118 -1.13687e-13 -25.65 2 -62.0203 7.79158 35.6277 0.5 -1.5 2.65 32.1194 -26.8118 4.54836 0 -3.8 3.7 0.205507 22.8955 -0.0932833 0 -3 2.7 0.0155403 42.7195 -0.119049 0 -1.9 1.6 3.74065e-07 -2.18838e-07 6.47733e-07 -1.13687e-13 -8.3 1.9 48.6432 6.7998 -3.80211 0 -4.5 0 3.06545 0.378414 -0.165582 -1.13687e-13 -3.4 5.68434e-14 0.000893111 0.380404 -0.176411 0.25 -2.2 0.4 3.74065e-07 -2.18838e-07 6.47733e-07 5.68434e-14 -8.3 1 58.3834 10.6628 -8.73021 -1.13687e-13 -4.65 -5.68434e-14 81.6148 -0.000206214 -0.0210991 7.10543e-14 -3.3 -5.68434e-14 65.7399 -0.0307391 -0.0210175 0.5 -2.15 -0.8 3.74065e-07 -2.18838e-07 6.47733e-07 -5.68434e-14 -7.75 -0.2 68.0881 6.14239 -9.91177 0 -3.8 -5.68434e-14 84.0757 -0.00489619 -0.00732787 -2.84217e-14 -3.4 5.68434e-14 73.7897 -0.0174504 0.00531414 0.75 -1.75 -1.85 3.74065e-07 -2.18838e-07 6.47733e-07 -5.68434e-14 -7.15 -1 89.9539 -0.111104 -16.7569 -1.13687e-13 -3 5.68434e-14 52.0659 0.0116299 0.0300123 2.84217e-14 -2.35 5.68434e-14 35.9589 0.0213581 0.0124746 8 0 5.68434e-14 21.2812 -25.4263 25.6759 0 -45 -1 -0.283235 0.689003 -3.41711 0 -41 -2 -7.03171 16.7707 -34.924 1.13687e-13 -7.5 12.5 2.63992e-07 3.24511e-06 -6.19784e-07 -1.13687e-13 -1.42109e-14 4 -1.61412 -3.71107 0.538515 -8 2.84217e-14 0 6.01288 -11.4679 -6.31845 0 -45 -1 0.118439 20.1353 -0.964918 0 -41 -2 -1.4521 -8.47785 -21.2964 0 -7.5 12.5 1.52292e-12 5.72587e-06 8.85466e-12 0 -2.08167e-17 4 4.28014 4.21668 32.3426 
